<?xml version='1.0' encoding='UTF-8'?>
<svg width="156.8mm" height="156.8mm" version="1.1" viewBox="0 0 156.8 156.8" xmlns="http://www.w3.org/2000/svg"><path d="M12.8,12.8H16V16H12.8zM16,12.8H19.2V16H16zM19.2,12.8H22.4V16H19.2zM22.4,12.8H25.6V16H22.4zM25.6,12.8H28.8V16H25.6zM28.8,12.8H32V16H28.8zM32,12.8H35.2V16H32zM44.8,12.8H48V16H44.8zM48,12.8H51.2V16H48zM51.2,12.8H54.4V16H51.2zM54.4,12.8H57.6V16H54.4zM67.2,12.8H70.4V16H67.2zM70.4,12.8H73.6V16H70.4zM73.6,12.8H76.8V16H73.6zM76.8,12.8H80V16H76.8zM89.6,12.8H92.8V16H89.6zM96,12.8H99.2V16H96zM99.2,12.8H102.4V16H99.2zM102.4,12.8H105.6V16H102.4zM108.8,12.8H112V16H108.8zM121.6,12.8H124.8V16H121.6zM124.8,12.8H128V16H124.8zM128,12.8H131.2V16H128zM131.2,12.8H134.4V16H131.2zM134.4,12.8H137.6V16H134.4zM137.6,12.8H140.8V16H137.6zM140.8,12.8H144V16H140.8zM12.8,16H16V19.2H12.8zM32,16H35.2V19.2H32zM38.4,16H41.6V19.2H38.4zM44.8,16H48V19.2H44.8zM51.2,16H54.4V19.2H51.2zM54.4,16H57.6V19.2H54.4zM57.6,16H60.8V19.2H57.6zM73.6,16H76.8V19.2H73.6zM80,16H83.2V19.2H80zM83.2,16H86.4V19.2H83.2zM86.4,16H89.6V19.2H86.4zM112,16H115.2V19.2H112zM115.2,16H118.4V19.2H115.2zM121.6,16H124.8V19.2H121.6zM140.8,16H144V19.2H140.8zM12.8,19.2H16V22.4H12.8zM19.2,19.2H22.4V22.4H19.2zM22.4,19.2H25.6V22.4H22.4zM25.6,19.2H28.8V22.4H25.6zM32,19.2H35.2V22.4H32zM41.6,19.2H44.8V22.4H41.6zM48,19.2H51.2V22.4H48zM51.2,19.2H54.4V22.4H51.2zM57.6,19.2H60.8V22.4H57.6zM60.8,19.2H64V22.4H60.8zM73.6,19.2H76.8V22.4H73.6zM92.8,19.2H96V22.4H92.8zM102.4,19.2H105.6V22.4H102.4zM105.6,19.2H108.8V22.4H105.6zM112,19.2H115.2V22.4H112zM115.2,19.2H118.4V22.4H115.2zM121.6,19.2H124.8V22.4H121.6zM128,19.2H131.2V22.4H128zM131.2,19.2H134.4V22.4H131.2zM134.4,19.2H137.6V22.4H134.4zM140.8,19.2H144V22.4H140.8zM12.8,22.4H16V25.6H12.8zM19.2,22.4H22.4V25.6H19.2zM22.4,22.4H25.6V25.6H22.4zM25.6,22.4H28.8V25.6H25.6zM32,22.4H35.2V25.6H32zM41.6,22.4H44.8V25.6H41.6zM51.2,22.4H54.4V25.6H51.2zM70.4,22.4H73.6V25.6H70.4zM83.2,22.4H86.4V25.6H83.2zM86.4,22.4H89.6V25.6H86.4zM89.6,22.4H92.8V25.6H89.6zM96,22.4H99.2V25.6H96zM99.2,22.4H102.4V25.6H99.2zM102.4,22.4H105.6V25.6H102.4zM108.8,22.4H112V25.6H108.8zM112,22.4H115.2V25.6H112zM121.6,22.4H124.8V25.6H121.6zM128,22.4H131.2V25.6H128zM131.2,22.4H134.4V25.6H131.2zM134.4,22.4H137.6V25.6H134.4zM140.8,22.4H144V25.6H140.8zM12.8,25.6H16V28.8H12.8zM19.2,25.6H22.4V28.8H19.2zM22.4,25.6H25.6V28.8H22.4zM25.6,25.6H28.8V28.8H25.6zM32,25.6H35.2V28.8H32zM41.6,25.6H44.8V28.8H41.6zM44.8,25.6H48V28.8H44.8zM51.2,25.6H54.4V28.8H51.2zM54.4,25.6H57.6V28.8H54.4zM57.6,25.6H60.8V28.8H57.6zM60.8,25.6H64V28.8H60.8zM64,25.6H67.2V28.8H64zM73.6,25.6H76.8V28.8H73.6zM76.8,25.6H80V28.8H76.8zM86.4,25.6H89.6V28.8H86.4zM96,25.6H99.2V28.8H96zM99.2,25.6H102.4V28.8H99.2zM102.4,25.6H105.6V28.8H102.4zM108.8,25.6H112V28.8H108.8zM115.2,25.6H118.4V28.8H115.2zM121.6,25.6H124.8V28.8H121.6zM128,25.6H131.2V28.8H128zM131.2,25.6H134.4V28.8H131.2zM134.4,25.6H137.6V28.8H134.4zM140.8,25.6H144V28.8H140.8zM12.8,28.8H16V32H12.8zM32,28.8H35.2V32H32zM38.4,28.8H41.6V32H38.4zM44.8,28.8H48V32H44.8zM51.2,28.8H54.4V32H51.2zM57.6,28.8H60.8V32H57.6zM60.8,28.8H64V32H60.8zM76.8,28.8H80V32H76.8zM83.2,28.8H86.4V32H83.2zM86.4,28.8H89.6V32H86.4zM105.6,28.8H108.8V32H105.6zM112,28.8H115.2V32H112zM115.2,28.8H118.4V32H115.2zM121.6,28.8H124.8V32H121.6zM140.8,28.8H144V32H140.8zM12.8,32H16V35.2H12.8zM16,32H19.2V35.2H16zM19.2,32H22.4V35.2H19.2zM22.4,32H25.6V35.2H22.4zM25.6,32H28.8V35.2H25.6zM28.8,32H32V35.2H28.8zM32,32H35.2V35.2H32zM38.4,32H41.6V35.2H38.4zM44.8,32H48V35.2H44.8zM51.2,32H54.4V35.2H51.2zM57.6,32H60.8V35.2H57.6zM64,32H67.2V35.2H64zM70.4,32H73.6V35.2H70.4zM76.8,32H80V35.2H76.8zM83.2,32H86.4V35.2H83.2zM89.6,32H92.8V35.2H89.6zM96,32H99.2V35.2H96zM102.4,32H105.6V35.2H102.4zM108.8,32H112V35.2H108.8zM115.2,32H118.4V35.2H115.2zM121.6,32H124.8V35.2H121.6zM124.8,32H128V35.2H124.8zM128,32H131.2V35.2H128zM131.2,32H134.4V35.2H131.2zM134.4,32H137.6V35.2H134.4zM137.6,32H140.8V35.2H137.6zM140.8,32H144V35.2H140.8zM38.4,35.2H41.6V38.4H38.4zM41.6,35.2H44.8V38.4H41.6zM54.4,35.2H57.6V38.4H54.4zM60.8,35.2H64V38.4H60.8zM64,35.2H67.2V38.4H64zM70.4,35.2H73.6V38.4H70.4zM73.6,35.2H76.8V38.4H73.6zM80,35.2H83.2V38.4H80zM89.6,35.2H92.8V38.4H89.6zM92.8,35.2H96V38.4H92.8zM99.2,35.2H102.4V38.4H99.2zM105.6,35.2H108.8V38.4H105.6zM108.8,35.2H112V38.4H108.8zM25.6,38.4H28.8V41.6H25.6zM28.8,38.4H32V41.6H28.8zM32,38.4H35.2V41.6H32zM35.2,38.4H38.4V41.6H35.2zM48,38.4H51.2V41.6H48zM57.6,38.4H60.8V41.6H57.6zM60.8,38.4H64V41.6H60.8zM67.2,38.4H70.4V41.6H67.2zM70.4,38.4H73.6V41.6H70.4zM83.2,38.4H86.4V41.6H83.2zM86.4,38.4H89.6V41.6H86.4zM89.6,38.4H92.8V41.6H89.6zM96,38.4H99.2V41.6H96zM102.4,38.4H105.6V41.6H102.4zM105.6,38.4H108.8V41.6H105.6zM115.2,38.4H118.4V41.6H115.2zM121.6,38.4H124.8V41.6H121.6zM124.8,38.4H128V41.6H124.8zM137.6,38.4H140.8V41.6H137.6zM12.8,41.6H16V44.8H12.8zM25.6,41.6H28.8V44.8H25.6zM28.8,41.6H32V44.8H28.8zM35.2,41.6H38.4V44.8H35.2zM38.4,41.6H41.6V44.8H38.4zM67.2,41.6H70.4V44.8H67.2zM83.2,41.6H86.4V44.8H83.2zM86.4,41.6H89.6V44.8H86.4zM89.6,41.6H92.8V44.8H89.6zM99.2,41.6H102.4V44.8H99.2zM102.4,41.6H105.6V44.8H102.4zM105.6,41.6H108.8V44.8H105.6zM108.8,41.6H112V44.8H108.8zM121.6,41.6H124.8V44.8H121.6zM124.8,41.6H128V44.8H124.8zM128,41.6H131.2V44.8H128zM131.2,41.6H134.4V44.8H131.2zM140.8,41.6H144V44.8H140.8zM19.2,44.8H22.4V48H19.2zM22.4,44.8H25.6V48H22.4zM32,44.8H35.2V48H32zM51.2,44.8H54.4V48H51.2zM57.6,44.8H60.8V48H57.6zM70.4,44.8H73.6V48H70.4zM76.8,44.8H80V48H76.8zM80,44.8H83.2V48H80zM83.2,44.8H86.4V48H83.2zM86.4,44.8H89.6V48H86.4zM89.6,44.8H92.8V48H89.6zM92.8,44.8H96V48H92.8zM96,44.8H99.2V48H96zM99.2,44.8H102.4V48H99.2zM105.6,44.8H108.8V48H105.6zM108.8,44.8H112V48H108.8zM115.2,44.8H118.4V48H115.2zM124.8,44.8H128V48H124.8zM140.8,44.8H144V48H140.8zM16,48H19.2V51.2H16zM19.2,48H22.4V51.2H19.2zM22.4,48H25.6V51.2H22.4zM25.6,48H28.8V51.2H25.6zM28.8,48H32V51.2H28.8zM35.2,48H38.4V51.2H35.2zM41.6,48H44.8V51.2H41.6zM51.2,48H54.4V51.2H51.2zM57.6,48H60.8V51.2H57.6zM60.8,48H64V51.2H60.8zM67.2,48H70.4V51.2H67.2zM70.4,48H73.6V51.2H70.4zM73.6,48H76.8V51.2H73.6zM76.8,48H80V51.2H76.8zM86.4,48H89.6V51.2H86.4zM89.6,48H92.8V51.2H89.6zM92.8,48H96V51.2H92.8zM96,48H99.2V51.2H96zM99.2,48H102.4V51.2H99.2zM105.6,48H108.8V51.2H105.6zM108.8,48H112V51.2H108.8zM112,48H115.2V51.2H112zM115.2,48H118.4V51.2H115.2zM121.6,48H124.8V51.2H121.6zM131.2,48H134.4V51.2H131.2zM137.6,48H140.8V51.2H137.6zM12.8,51.2H16V54.4H12.8zM16,51.2H19.2V54.4H16zM19.2,51.2H22.4V54.4H19.2zM28.8,51.2H32V54.4H28.8zM32,51.2H35.2V54.4H32zM35.2,51.2H38.4V54.4H35.2zM44.8,51.2H48V54.4H44.8zM48,51.2H51.2V54.4H48zM51.2,51.2H54.4V54.4H51.2zM54.4,51.2H57.6V54.4H54.4zM60.8,51.2H64V54.4H60.8zM64,51.2H67.2V54.4H64zM70.4,51.2H73.6V54.4H70.4zM86.4,51.2H89.6V54.4H86.4zM96,51.2H99.2V54.4H96zM99.2,51.2H102.4V54.4H99.2zM102.4,51.2H105.6V54.4H102.4zM105.6,51.2H108.8V54.4H105.6zM118.4,51.2H121.6V54.4H118.4zM140.8,51.2H144V54.4H140.8zM19.2,54.4H22.4V57.6H19.2zM22.4,54.4H25.6V57.6H22.4zM25.6,54.4H28.8V57.6H25.6zM28.8,54.4H32V57.6H28.8zM41.6,54.4H44.8V57.6H41.6zM48,54.4H51.2V57.6H48zM54.4,54.4H57.6V57.6H54.4zM64,54.4H67.2V57.6H64zM83.2,54.4H86.4V57.6H83.2zM89.6,54.4H92.8V57.6H89.6zM92.8,54.4H96V57.6H92.8zM96,54.4H99.2V57.6H96zM105.6,54.4H108.8V57.6H105.6zM108.8,54.4H112V57.6H108.8zM124.8,54.4H128V57.6H124.8zM128,54.4H131.2V57.6H128zM131.2,54.4H134.4V57.6H131.2zM140.8,54.4H144V57.6H140.8zM16,57.6H19.2V60.8H16zM25.6,57.6H28.8V60.8H25.6zM32,57.6H35.2V60.8H32zM38.4,57.6H41.6V60.8H38.4zM48,57.6H51.2V60.8H48zM64,57.6H67.2V60.8H64zM70.4,57.6H73.6V60.8H70.4zM83.2,57.6H86.4V60.8H83.2zM89.6,57.6H92.8V60.8H89.6zM99.2,57.6H102.4V60.8H99.2zM105.6,57.6H108.8V60.8H105.6zM118.4,57.6H121.6V60.8H118.4zM121.6,57.6H124.8V60.8H121.6zM128,57.6H131.2V60.8H128zM131.2,57.6H134.4V60.8H131.2zM137.6,57.6H140.8V60.8H137.6zM140.8,57.6H144V60.8H140.8zM19.2,60.8H22.4V64H19.2zM22.4,60.8H25.6V64H22.4zM28.8,60.8H32V64H28.8zM38.4,60.8H41.6V64H38.4zM44.8,60.8H48V64H44.8zM51.2,60.8H54.4V64H51.2zM54.4,60.8H57.6V64H54.4zM57.6,60.8H60.8V64H57.6zM64,60.8H67.2V64H64zM67.2,60.8H70.4V64H67.2zM70.4,60.8H73.6V64H70.4zM76.8,60.8H80V64H76.8zM80,60.8H83.2V64H80zM83.2,60.8H86.4V64H83.2zM86.4,60.8H89.6V64H86.4zM96,60.8H99.2V64H96zM99.2,60.8H102.4V64H99.2zM102.4,60.8H105.6V64H102.4zM105.6,60.8H108.8V64H105.6zM108.8,60.8H112V64H108.8zM112,60.8H115.2V64H112zM124.8,60.8H128V64H124.8zM131.2,60.8H134.4V64H131.2zM137.6,60.8H140.8V64H137.6zM140.8,60.8H144V64H140.8zM12.8,64H16V67.2H12.8zM19.2,64H22.4V67.2H19.2zM22.4,64H25.6V67.2H22.4zM32,64H35.2V67.2H32zM38.4,64H41.6V67.2H38.4zM54.4,64H57.6V67.2H54.4zM57.6,64H60.8V67.2H57.6zM67.2,64H70.4V67.2H67.2zM70.4,64H73.6V67.2H70.4zM76.8,64H80V67.2H76.8zM83.2,64H86.4V67.2H83.2zM92.8,64H96V67.2H92.8zM102.4,64H105.6V67.2H102.4zM105.6,64H108.8V67.2H105.6zM112,64H115.2V67.2H112zM115.2,64H118.4V67.2H115.2zM124.8,64H128V67.2H124.8zM131.2,64H134.4V67.2H131.2zM140.8,64H144V67.2H140.8zM12.8,67.2H16V70.4H12.8zM19.2,67.2H22.4V70.4H19.2zM22.4,67.2H25.6V70.4H22.4zM25.6,67.2H28.8V70.4H25.6zM41.6,67.2H44.8V70.4H41.6zM51.2,67.2H54.4V70.4H51.2zM54.4,67.2H57.6V70.4H54.4zM60.8,67.2H64V70.4H60.8zM67.2,67.2H70.4V70.4H67.2zM73.6,67.2H76.8V70.4H73.6zM80,67.2H83.2V70.4H80zM83.2,67.2H86.4V70.4H83.2zM86.4,67.2H89.6V70.4H86.4zM89.6,67.2H92.8V70.4H89.6zM99.2,67.2H102.4V70.4H99.2zM102.4,67.2H105.6V70.4H102.4zM108.8,67.2H112V70.4H108.8zM115.2,67.2H118.4V70.4H115.2zM118.4,67.2H121.6V70.4H118.4zM121.6,67.2H124.8V70.4H121.6zM124.8,67.2H128V70.4H124.8zM128,67.2H131.2V70.4H128zM140.8,67.2H144V70.4H140.8zM16,70.4H19.2V73.6H16zM19.2,70.4H22.4V73.6H19.2zM22.4,70.4H25.6V73.6H22.4zM25.6,70.4H28.8V73.6H25.6zM32,70.4H35.2V73.6H32zM35.2,70.4H38.4V73.6H35.2zM38.4,70.4H41.6V73.6H38.4zM48,70.4H51.2V73.6H48zM51.2,70.4H54.4V73.6H51.2zM73.6,70.4H76.8V73.6H73.6zM92.8,70.4H96V73.6H92.8zM96,70.4H99.2V73.6H96zM99.2,70.4H102.4V73.6H99.2zM102.4,70.4H105.6V73.6H102.4zM105.6,70.4H108.8V73.6H105.6zM108.8,70.4H112V73.6H108.8zM124.8,70.4H128V73.6H124.8zM134.4,70.4H137.6V73.6H134.4zM140.8,70.4H144V73.6H140.8zM12.8,73.6H16V76.8H12.8zM25.6,73.6H28.8V76.8H25.6zM28.8,73.6H32V76.8H28.8zM38.4,73.6H41.6V76.8H38.4zM41.6,73.6H44.8V76.8H41.6zM44.8,73.6H48V76.8H44.8zM51.2,73.6H54.4V76.8H51.2zM60.8,73.6H64V76.8H60.8zM64,73.6H67.2V76.8H64zM67.2,73.6H70.4V76.8H67.2zM70.4,73.6H73.6V76.8H70.4zM73.6,73.6H76.8V76.8H73.6zM76.8,73.6H80V76.8H76.8zM83.2,73.6H86.4V76.8H83.2zM86.4,73.6H89.6V76.8H86.4zM92.8,73.6H96V76.8H92.8zM96,73.6H99.2V76.8H96zM99.2,73.6H102.4V76.8H99.2zM102.4,73.6H105.6V76.8H102.4zM105.6,73.6H108.8V76.8H105.6zM108.8,73.6H112V76.8H108.8zM112,73.6H115.2V76.8H112zM121.6,73.6H124.8V76.8H121.6zM124.8,73.6H128V76.8H124.8zM131.2,73.6H134.4V76.8H131.2zM140.8,73.6H144V76.8H140.8zM12.8,76.8H16V80H12.8zM16,76.8H19.2V80H16zM19.2,76.8H22.4V80H19.2zM32,76.8H35.2V80H32zM35.2,76.8H38.4V80H35.2zM41.6,76.8H44.8V80H41.6zM48,76.8H51.2V80H48zM54.4,76.8H57.6V80H54.4zM64,76.8H67.2V80H64zM70.4,76.8H73.6V80H70.4zM76.8,76.8H80V80H76.8zM80,76.8H83.2V80H80zM83.2,76.8H86.4V80H83.2zM86.4,76.8H89.6V80H86.4zM92.8,76.8H96V80H92.8zM96,76.8H99.2V80H96zM102.4,76.8H105.6V80H102.4zM105.6,76.8H108.8V80H105.6zM108.8,76.8H112V80H108.8zM112,76.8H115.2V80H112zM115.2,76.8H118.4V80H115.2zM118.4,76.8H121.6V80H118.4zM131.2,76.8H134.4V80H131.2zM137.6,76.8H140.8V80H137.6zM16,80H19.2V83.2H16zM22.4,80H25.6V83.2H22.4zM25.6,80H28.8V83.2H25.6zM35.2,80H38.4V83.2H35.2zM38.4,80H41.6V83.2H38.4zM41.6,80H44.8V83.2H41.6zM51.2,80H54.4V83.2H51.2zM57.6,80H60.8V83.2H57.6zM60.8,80H64V83.2H60.8zM67.2,80H70.4V83.2H67.2zM89.6,80H92.8V83.2H89.6zM99.2,80H102.4V83.2H99.2zM102.4,80H105.6V83.2H102.4zM108.8,80H112V83.2H108.8zM121.6,80H124.8V83.2H121.6zM128,80H131.2V83.2H128zM134.4,80H137.6V83.2H134.4zM140.8,80H144V83.2H140.8zM12.8,83.2H16V86.4H12.8zM19.2,83.2H22.4V86.4H19.2zM22.4,83.2H25.6V86.4H22.4zM32,83.2H35.2V86.4H32zM44.8,83.2H48V86.4H44.8zM51.2,83.2H54.4V86.4H51.2zM54.4,83.2H57.6V86.4H54.4zM57.6,83.2H60.8V86.4H57.6zM64,83.2H67.2V86.4H64zM67.2,83.2H70.4V86.4H67.2zM73.6,83.2H76.8V86.4H73.6zM83.2,83.2H86.4V86.4H83.2zM86.4,83.2H89.6V86.4H86.4zM96,83.2H99.2V86.4H96zM99.2,83.2H102.4V86.4H99.2zM105.6,83.2H108.8V86.4H105.6zM115.2,83.2H118.4V86.4H115.2zM118.4,83.2H121.6V86.4H118.4zM128,83.2H131.2V86.4H128zM131.2,83.2H134.4V86.4H131.2zM140.8,83.2H144V86.4H140.8zM12.8,86.4H16V89.6H12.8zM16,86.4H19.2V89.6H16zM28.8,86.4H32V89.6H28.8zM51.2,86.4H54.4V89.6H51.2zM54.4,86.4H57.6V89.6H54.4zM60.8,86.4H64V89.6H60.8zM70.4,86.4H73.6V89.6H70.4zM80,86.4H83.2V89.6H80zM86.4,86.4H89.6V89.6H86.4zM89.6,86.4H92.8V89.6H89.6zM92.8,86.4H96V89.6H92.8zM96,86.4H99.2V89.6H96zM99.2,86.4H102.4V89.6H99.2zM102.4,86.4H105.6V89.6H102.4zM105.6,86.4H108.8V89.6H105.6zM108.8,86.4H112V89.6H108.8zM112,86.4H115.2V89.6H112zM118.4,86.4H121.6V89.6H118.4zM121.6,86.4H124.8V89.6H121.6zM128,86.4H131.2V89.6H128zM131.2,86.4H134.4V89.6H131.2zM12.8,89.6H16V92.8H12.8zM19.2,89.6H22.4V92.8H19.2zM28.8,89.6H32V92.8H28.8zM32,89.6H35.2V92.8H32zM35.2,89.6H38.4V92.8H35.2zM44.8,89.6H48V92.8H44.8zM48,89.6H51.2V92.8H48zM57.6,89.6H60.8V92.8H57.6zM67.2,89.6H70.4V92.8H67.2zM70.4,89.6H73.6V92.8H70.4zM73.6,89.6H76.8V92.8H73.6zM80,89.6H83.2V92.8H80zM99.2,89.6H102.4V92.8H99.2zM105.6,89.6H108.8V92.8H105.6zM112,89.6H115.2V92.8H112zM115.2,89.6H118.4V92.8H115.2zM118.4,89.6H121.6V92.8H118.4zM124.8,89.6H128V92.8H124.8zM137.6,89.6H140.8V92.8H137.6zM12.8,92.8H16V96H12.8zM16,92.8H19.2V96H16zM25.6,92.8H28.8V96H25.6zM28.8,92.8H32V96H28.8zM41.6,92.8H44.8V96H41.6zM44.8,92.8H48V96H44.8zM48,92.8H51.2V96H48zM57.6,92.8H60.8V96H57.6zM60.8,92.8H64V96H60.8zM64,92.8H67.2V96H64zM67.2,92.8H70.4V96H67.2zM70.4,92.8H73.6V96H70.4zM73.6,92.8H76.8V96H73.6zM83.2,92.8H86.4V96H83.2zM86.4,92.8H89.6V96H86.4zM89.6,92.8H92.8V96H89.6zM92.8,92.8H96V96H92.8zM99.2,92.8H102.4V96H99.2zM102.4,92.8H105.6V96H102.4zM115.2,92.8H118.4V96H115.2zM118.4,92.8H121.6V96H118.4zM121.6,92.8H124.8V96H121.6zM124.8,92.8H128V96H124.8zM128,92.8H131.2V96H128zM134.4,92.8H137.6V96H134.4zM140.8,92.8H144V96H140.8zM25.6,96H28.8V99.2H25.6zM28.8,96H32V99.2H28.8zM32,96H35.2V99.2H32zM41.6,96H44.8V99.2H41.6zM44.8,96H48V99.2H44.8zM48,96H51.2V99.2H48zM51.2,96H54.4V99.2H51.2zM60.8,96H64V99.2H60.8zM73.6,96H76.8V99.2H73.6zM76.8,96H80V99.2H76.8zM83.2,96H86.4V99.2H83.2zM96,96H99.2V99.2H96zM99.2,96H102.4V99.2H99.2zM108.8,96H112V99.2H108.8zM115.2,96H118.4V99.2H115.2zM140.8,96H144V99.2H140.8zM16,99.2H19.2V102.4H16zM19.2,99.2H22.4V102.4H19.2zM28.8,99.2H32V102.4H28.8zM35.2,99.2H38.4V102.4H35.2zM41.6,99.2H44.8V102.4H41.6zM44.8,99.2H48V102.4H44.8zM48,99.2H51.2V102.4H48zM51.2,99.2H54.4V102.4H51.2zM54.4,99.2H57.6V102.4H54.4zM64,99.2H67.2V102.4H64zM76.8,99.2H80V102.4H76.8zM80,99.2H83.2V102.4H80zM83.2,99.2H86.4V102.4H83.2zM86.4,99.2H89.6V102.4H86.4zM89.6,99.2H92.8V102.4H89.6zM96,99.2H99.2V102.4H96zM99.2,99.2H102.4V102.4H99.2zM105.6,99.2H108.8V102.4H105.6zM108.8,99.2H112V102.4H108.8zM112,99.2H115.2V102.4H112zM115.2,99.2H118.4V102.4H115.2zM121.6,99.2H124.8V102.4H121.6zM124.8,99.2H128V102.4H124.8zM128,99.2H131.2V102.4H128zM131.2,99.2H134.4V102.4H131.2zM12.8,102.4H16V105.6H12.8zM16,102.4H19.2V105.6H16zM22.4,102.4H25.6V105.6H22.4zM25.6,102.4H28.8V105.6H25.6zM32,102.4H35.2V105.6H32zM38.4,102.4H41.6V105.6H38.4zM48,102.4H51.2V105.6H48zM51.2,102.4H54.4V105.6H51.2zM57.6,102.4H60.8V105.6H57.6zM60.8,102.4H64V105.6H60.8zM67.2,102.4H70.4V105.6H67.2zM70.4,102.4H73.6V105.6H70.4zM73.6,102.4H76.8V105.6H73.6zM80,102.4H83.2V105.6H80zM83.2,102.4H86.4V105.6H83.2zM86.4,102.4H89.6V105.6H86.4zM89.6,102.4H92.8V105.6H89.6zM92.8,102.4H96V105.6H92.8zM96,102.4H99.2V105.6H96zM105.6,102.4H108.8V105.6H105.6zM118.4,102.4H121.6V105.6H118.4zM124.8,102.4H128V105.6H124.8zM137.6,102.4H140.8V105.6H137.6zM140.8,102.4H144V105.6H140.8zM12.8,105.6H16V108.8H12.8zM19.2,105.6H22.4V108.8H19.2zM22.4,105.6H25.6V108.8H22.4zM35.2,105.6H38.4V108.8H35.2zM38.4,105.6H41.6V108.8H38.4zM41.6,105.6H44.8V108.8H41.6zM54.4,105.6H57.6V108.8H54.4zM57.6,105.6H60.8V108.8H57.6zM67.2,105.6H70.4V108.8H67.2zM80,105.6H83.2V108.8H80zM89.6,105.6H92.8V108.8H89.6zM92.8,105.6H96V108.8H92.8zM102.4,105.6H105.6V108.8H102.4zM105.6,105.6H108.8V108.8H105.6zM108.8,105.6H112V108.8H108.8zM121.6,105.6H124.8V108.8H121.6zM124.8,105.6H128V108.8H124.8zM128,105.6H131.2V108.8H128zM140.8,105.6H144V108.8H140.8zM22.4,108.8H25.6V112H22.4zM25.6,108.8H28.8V112H25.6zM32,108.8H35.2V112H32zM41.6,108.8H44.8V112H41.6zM48,108.8H51.2V112H48zM57.6,108.8H60.8V112H57.6zM64,108.8H67.2V112H64zM67.2,108.8H70.4V112H67.2zM86.4,108.8H89.6V112H86.4zM89.6,108.8H92.8V112H89.6zM96,108.8H99.2V112H96zM102.4,108.8H105.6V112H102.4zM108.8,108.8H112V112H108.8zM115.2,108.8H118.4V112H115.2zM118.4,108.8H121.6V112H118.4zM128,108.8H131.2V112H128zM134.4,108.8H137.6V112H134.4zM140.8,108.8H144V112H140.8zM25.6,112H28.8V115.2H25.6zM38.4,112H41.6V115.2H38.4zM41.6,112H44.8V115.2H41.6zM48,112H51.2V115.2H48zM64,112H67.2V115.2H64zM67.2,112H70.4V115.2H67.2zM70.4,112H73.6V115.2H70.4zM73.6,112H76.8V115.2H73.6zM83.2,112H86.4V115.2H83.2zM86.4,112H89.6V115.2H86.4zM89.6,112H92.8V115.2H89.6zM92.8,112H96V115.2H92.8zM96,112H99.2V115.2H96zM105.6,112H108.8V115.2H105.6zM108.8,112H112V115.2H108.8zM118.4,112H121.6V115.2H118.4zM128,112H131.2V115.2H128zM131.2,112H134.4V115.2H131.2zM12.8,115.2H16V118.4H12.8zM16,115.2H19.2V118.4H16zM32,115.2H35.2V118.4H32zM35.2,115.2H38.4V118.4H35.2zM38.4,115.2H41.6V118.4H38.4zM41.6,115.2H44.8V118.4H41.6zM48,115.2H51.2V118.4H48zM54.4,115.2H57.6V118.4H54.4zM57.6,115.2H60.8V118.4H57.6zM60.8,115.2H64V118.4H60.8zM70.4,115.2H73.6V118.4H70.4zM76.8,115.2H80V118.4H76.8zM80,115.2H83.2V118.4H80zM83.2,115.2H86.4V118.4H83.2zM86.4,115.2H89.6V118.4H86.4zM92.8,115.2H96V118.4H92.8zM99.2,115.2H102.4V118.4H99.2zM102.4,115.2H105.6V118.4H102.4zM105.6,115.2H108.8V118.4H105.6zM108.8,115.2H112V118.4H108.8zM112,115.2H115.2V118.4H112zM115.2,115.2H118.4V118.4H115.2zM118.4,115.2H121.6V118.4H118.4zM121.6,115.2H124.8V118.4H121.6zM124.8,115.2H128V118.4H124.8zM128,115.2H131.2V118.4H128zM131.2,115.2H134.4V118.4H131.2zM38.4,118.4H41.6V121.6H38.4zM44.8,118.4H48V121.6H44.8zM48,118.4H51.2V121.6H48zM51.2,118.4H54.4V121.6H51.2zM57.6,118.4H60.8V121.6H57.6zM73.6,118.4H76.8V121.6H73.6zM83.2,118.4H86.4V121.6H83.2zM102.4,118.4H105.6V121.6H102.4zM105.6,118.4H108.8V121.6H105.6zM108.8,118.4H112V121.6H108.8zM112,118.4H115.2V121.6H112zM115.2,118.4H118.4V121.6H115.2zM128,118.4H131.2V121.6H128zM134.4,118.4H137.6V121.6H134.4zM140.8,118.4H144V121.6H140.8zM12.8,121.6H16V124.8H12.8zM16,121.6H19.2V124.8H16zM19.2,121.6H22.4V124.8H19.2zM22.4,121.6H25.6V124.8H22.4zM25.6,121.6H28.8V124.8H25.6zM28.8,121.6H32V124.8H28.8zM32,121.6H35.2V124.8H32zM38.4,121.6H41.6V124.8H38.4zM41.6,121.6H44.8V124.8H41.6zM44.8,121.6H48V124.8H44.8zM54.4,121.6H57.6V124.8H54.4zM60.8,121.6H64V124.8H60.8zM67.2,121.6H70.4V124.8H67.2zM70.4,121.6H73.6V124.8H70.4zM73.6,121.6H76.8V124.8H73.6zM76.8,121.6H80V124.8H76.8zM83.2,121.6H86.4V124.8H83.2zM89.6,121.6H92.8V124.8H89.6zM92.8,121.6H96V124.8H92.8zM96,121.6H99.2V124.8H96zM99.2,121.6H102.4V124.8H99.2zM108.8,121.6H112V124.8H108.8zM112,121.6H115.2V124.8H112zM115.2,121.6H118.4V124.8H115.2zM121.6,121.6H124.8V124.8H121.6zM128,121.6H131.2V124.8H128zM131.2,121.6H134.4V124.8H131.2zM134.4,121.6H137.6V124.8H134.4zM140.8,121.6H144V124.8H140.8zM12.8,124.8H16V128H12.8zM32,124.8H35.2V128H32zM38.4,124.8H41.6V128H38.4zM41.6,124.8H44.8V128H41.6zM48,124.8H51.2V128H48zM57.6,124.8H60.8V128H57.6zM60.8,124.8H64V128H60.8zM64,124.8H67.2V128H64zM67.2,124.8H70.4V128H67.2zM70.4,124.8H73.6V128H70.4zM73.6,124.8H76.8V128H73.6zM80,124.8H83.2V128H80zM83.2,124.8H86.4V128H83.2zM89.6,124.8H92.8V128H89.6zM92.8,124.8H96V128H92.8zM96,124.8H99.2V128H96zM105.6,124.8H108.8V128H105.6zM108.8,124.8H112V128H108.8zM112,124.8H115.2V128H112zM115.2,124.8H118.4V128H115.2zM128,124.8H131.2V128H128zM131.2,124.8H134.4V128H131.2zM137.6,124.8H140.8V128H137.6zM12.8,128H16V131.2H12.8zM19.2,128H22.4V131.2H19.2zM22.4,128H25.6V131.2H22.4zM25.6,128H28.8V131.2H25.6zM32,128H35.2V131.2H32zM38.4,128H41.6V131.2H38.4zM54.4,128H57.6V131.2H54.4zM57.6,128H60.8V131.2H57.6zM64,128H67.2V131.2H64zM70.4,128H73.6V131.2H70.4zM83.2,128H86.4V131.2H83.2zM89.6,128H92.8V131.2H89.6zM99.2,128H102.4V131.2H99.2zM108.8,128H112V131.2H108.8zM112,128H115.2V131.2H112zM115.2,128H118.4V131.2H115.2zM118.4,128H121.6V131.2H118.4zM121.6,128H124.8V131.2H121.6zM124.8,128H128V131.2H124.8zM128,128H131.2V131.2H128zM131.2,128H134.4V131.2H131.2zM12.8,131.2H16V134.4H12.8zM19.2,131.2H22.4V134.4H19.2zM22.4,131.2H25.6V134.4H22.4zM25.6,131.2H28.8V134.4H25.6zM32,131.2H35.2V134.4H32zM44.8,131.2H48V134.4H44.8zM48,131.2H51.2V134.4H48zM51.2,131.2H54.4V134.4H51.2zM57.6,131.2H60.8V134.4H57.6zM70.4,131.2H73.6V134.4H70.4zM89.6,131.2H92.8V134.4H89.6zM99.2,131.2H102.4V134.4H99.2zM102.4,131.2H105.6V134.4H102.4zM108.8,131.2H112V134.4H108.8zM115.2,131.2H118.4V134.4H115.2zM124.8,131.2H128V134.4H124.8zM134.4,131.2H137.6V134.4H134.4zM137.6,131.2H140.8V134.4H137.6zM140.8,131.2H144V134.4H140.8zM12.8,134.4H16V137.6H12.8zM19.2,134.4H22.4V137.6H19.2zM22.4,134.4H25.6V137.6H22.4zM25.6,134.4H28.8V137.6H25.6zM32,134.4H35.2V137.6H32zM41.6,134.4H44.8V137.6H41.6zM44.8,134.4H48V137.6H44.8zM48,134.4H51.2V137.6H48zM54.4,134.4H57.6V137.6H54.4zM60.8,134.4H64V137.6H60.8zM64,134.4H67.2V137.6H64zM67.2,134.4H70.4V137.6H67.2zM70.4,134.4H73.6V137.6H70.4zM73.6,134.4H76.8V137.6H73.6zM80,134.4H83.2V137.6H80zM83.2,134.4H86.4V137.6H83.2zM86.4,134.4H89.6V137.6H86.4zM99.2,134.4H102.4V137.6H99.2zM102.4,134.4H105.6V137.6H102.4zM112,134.4H115.2V137.6H112zM118.4,134.4H121.6V137.6H118.4zM137.6,134.4H140.8V137.6H137.6zM140.8,134.4H144V137.6H140.8zM12.8,137.6H16V140.8H12.8zM32,137.6H35.2V140.8H32zM41.6,137.6H44.8V140.8H41.6zM44.8,137.6H48V140.8H44.8zM54.4,137.6H57.6V140.8H54.4zM73.6,137.6H76.8V140.8H73.6zM92.8,137.6H96V140.8H92.8zM96,137.6H99.2V140.8H96zM99.2,137.6H102.4V140.8H99.2zM105.6,137.6H108.8V140.8H105.6zM115.2,137.6H118.4V140.8H115.2zM121.6,137.6H124.8V140.8H121.6zM124.8,137.6H128V140.8H124.8zM131.2,137.6H134.4V140.8H131.2zM137.6,137.6H140.8V140.8H137.6zM140.8,137.6H144V140.8H140.8zM12.8,140.8H16V144H12.8zM16,140.8H19.2V144H16zM19.2,140.8H22.4V144H19.2zM22.4,140.8H25.6V144H22.4zM25.6,140.8H28.8V144H25.6zM28.8,140.8H32V144H28.8zM32,140.8H35.2V144H32zM44.8,140.8H48V144H44.8zM48,140.8H51.2V144H48zM67.2,140.8H70.4V144H67.2zM70.4,140.8H73.6V144H70.4zM73.6,140.8H76.8V144H73.6zM76.8,140.8H80V144H76.8zM80,140.8H83.2V144H80zM86.4,140.8H89.6V144H86.4zM96,140.8H99.2V144H96zM99.2,140.8H102.4V144H99.2zM105.6,140.8H108.8V144H105.6zM115.2,140.8H118.4V144H115.2zM118.4,140.8H121.6V144H118.4zM124.8,140.8H128V144H124.8zM128,140.8H131.2V144H128zM131.2,140.8H134.4V144H131.2zM137.6,140.8H140.8V144H137.6z" id="qr-path" fill="#000000" fill-opacity="1" fill-rule="nonzero" stroke="none"/></svg>